HIERARCHY
ROOT Hips
{
  OFFSET 5.17789 92.9893 -330.024
  CHANNELS 6 Xposition Yposition Zposition Zrotation Xrotation Yrotation
  JOINT ToSpine
  {
    OFFSET -0.0105055 1.38907 -7.13956
    CHANNELS 3 Zrotation Xrotation Yrotation
    JOINT Spine
    {
      OFFSET 0.0105055 10 1
      CHANNELS 3 Zrotation Xrotation Yrotation
      JOINT Spine1
      {
        OFFSET 0 12 1.60637
        CHANNELS 3 Zrotation Xrotation Yrotation
        JOINT Neck
        {
          OFFSET 0 27 2.26658
          CHANNELS 3 Zrotation Xrotation Yrotation
          JOINT Head
          {
            OFFSET 0 9 2.12705
            CHANNELS 3 Zrotation Xrotation Yrotation
            End Site
            {
              OFFSET 0 11 2
            }
          }
        }
        JOINT LeftShoulder
        {
          OFFSET 8 19.6109 2.86452
          CHANNELS 3 Zrotation Xrotation Yrotation
          JOINT LeftArm
          {
            OFFSET 12 1 0.681055
            CHANNELS 3 Zrotation Xrotation Yrotation
            JOINT LeftForeArm
            {
              OFFSET 19 0 -1.52608
              CHANNELS 3 Zrotation Xrotation Yrotation
              JOINT LeftHand
              {
                OFFSET 23 0 0
                CHANNELS 3 Zrotation Xrotation Yrotation
                End Site
                {
                  OFFSET 10 0 0
                }
              }
            }
          }
        }
        JOINT RightShoulder
        {
          OFFSET -8 19.6109 2.86452
          CHANNELS 3 Zrotation Xrotation Yrotation
          JOINT RightArm
          {
            OFFSET -12 1 0.681055
            CHANNELS 3 Zrotation Xrotation Yrotation
            JOINT RightForeArm
            {
              OFFSET -19 0 -1.52608
              CHANNELS 3 Zrotation Xrotation Yrotation
              JOINT RightHand
              {
                OFFSET -23 0 0
                CHANNELS 3 Zrotation Xrotation Yrotation
                End Site
                {
                  OFFSET -10 0 0
                }
              }
            }
          }
        }
      }
    }
  }
  JOINT LeftUpLeg
  {
    OFFSET 9 -7.17245 0
    CHANNELS 3 Zrotation Xrotation Yrotation
    JOINT LeftLeg
    {
      OFFSET 0 -44.1113 0
      CHANNELS 3 Zrotation Xrotation Yrotation
      JOINT LeftFoot
      {
        OFFSET 0 -36.1829 0
        CHANNELS 3 Zrotation Xrotation Yrotation
        JOINT LeftToeBase
        {
          OFFSET 0 -4.84184 13
          CHANNELS 3 Zrotation Xrotation Yrotation
          End Site
          {
            OFFSET 0 1 6
          }
        }
      }
    }
  }
  JOINT RightUpLeg
  {
    OFFSET -9 -7.17245 0
    CHANNELS 3 Zrotation Xrotation Yrotation
    JOINT RightLeg
    {
      OFFSET 0 -44.0551 0
      CHANNELS 3 Zrotation Xrotation Yrotation
      JOINT RightFoot
      {
        OFFSET 0 -36.1469 0
        CHANNELS 3 Zrotation Xrotation Yrotation
        JOINT RightToeBase
        {
          OFFSET 0 -4.92256 13
          CHANNELS 3 Zrotation Xrotation Yrotation
          End Site
          {
            OFFSET 0 1 6
          }
        }
      }
    }
  }
}
MOTION
Frames:	17
Frame Time:	0.0333333
2.79239 95.8601 -82.7286 2.89816 -6.27923 -4.63638 0 0 0 13.4315 0.237009 4.25803 -19.9311 8.64347 9.07248 5.8046 10.063 -2.87302 -0.0534138 -3.91018 -0.668494 -36.88 3.49565 -4.61427 -42.12 12.207 6.42599 -3.52649 -15.1334 -5.35292 -11.2957 0.0805186 -0.814175 25.0987 6.51285 17.1038 44.39 12.7656 12.8619 2.09029 -1.44498 13.0228 2.8052 0.0981269 4.00602 -4.22378 -18.19 2.69856 -3.64769 16.491 -1.97942 0.10808 5.33917 -0.00503943 0.17757 3.40874 -1.48527 -2.40293 25.4764 -10.1534 -1.41714 13.3933 10.7925 -17.1662 -7.46938 -1.12895 8.15916 -30.2611 -1.76203 
2.93467 96.1235 -78.9247 4.14187 -6.64822 -4.69563 0 0 0 11.8766 -0.656719 4.33262 -19.7772 9.22034 9.0229 5.68697 10.2182 -2.83483 0.480464 -2.86315 -0.773446 -37.0784 3.53768 -4.67268 -41.5112 12.6661 5.15976 -3.49935 -15.2036 -4.37854 -11.3904 0.143245 -1.43627 24.5135 6.31752 16.8539 47.1243 13.2373 11.4289 2.54086 -1.01326 11.0758 3.37863 0.118762 4.02519 -5.44233 -17.4662 4.23062 -4.07119 21.1877 -3.55301 0.59908 0.416361 -0.00217675 0.105547 7.78502 -1.99085 -4.70393 23.631 -7.70148 -1.37857 20.9959 9.27693 -18.1594 -2.51796 -0.40246 10.2461 -35.6247 0.659009 
3.08213 96.6322 -75.3748 4.8664 -7.42159 -4.89268 0 0 0 10.8443 -0.223591 4.12884 -19.6928 8.94663 8.80369 6.16279 10.4679 -2.93717 0.422376 -2.41142 -0.671721 -36.9996 3.63051 -4.90244 -40.0164 16.3116 2.27744 -4.11903 -15.2443 -2.56006 -11.6312 0.166376 -1.6334 24.6642 6.32267 16.7772 48.8624 13.7128 9.80829 3.22893 -2.23046 9.48981 4.38952 0.166839 4.35122 -6.72961 -14.6907 4.68312 -3.57594 22.3592 -3.98152 1.55738 -2.40837 0.0327383 0.342743 8.358 -2.85219 -6.69155 20.6281 -3.91112 1.17764e-007 31.0927 6.98133 -16.8076 1.00771 0.148877 9.7825 -32.8665 2.79763 
3.26938 97.2203 -72.0733 5.38863 -7.74128 -5.42468 0 0 0 9.85556 -0.0534807 3.89573 -18.9707 8.85991 8.43802 5.51139 10.4108 -2.38013 0.933116 -1.97503 -0.469745 -37.667 3.62521 -4.75803 -37.1226 19.7528 -1.87091 -4.84995 -13.7373 -1.08473 -10.7199 0.119452 -1.27311 24.4599 6.33371 16.9384 50.1475 14.5537 8.18556 3.62086 -2.46912 8.61446 3.85826 0.146889 4.35889 -7.50959 -11.5891 4.79041 -3.97903 21.4255 -3.82761 2.39614 -4.09925 0.0857652 0.0472469 7.59076 -1.76652 -8.61793 15.8007 -4.01754 2.8851e-007 41.7935 9.16082 -16.9584 5.4178 0.808275 6.84028 -25.4233 -1.48107 
3.26986 97.5607 -69.1263 5.88489 -8.15839 -6.08207 0 0 0 8.41253 0.341624 3.69953 -18.0725 8.84751 7.97399 5.82088 11.2 -2.09252 0.226376 -2.70391 0.123922 -37.505 3.69368 -4.94595 -34.7384 18.0414 -7.00992 -4.65708 -11.2521 2.53327 -10.7432 0.159289 -1.69395 24.3726 6.30724 16.9089 51.2443 15.3278 6.51011 3.61194 -1.5944 9.04769 3.22352 0.117771 4.18363 -8.21543 -8.77446 4.39417 -4.58326 20.6515 -2.73115 3.58035 -5.45221 0.170535 0.0144062 6.37349 -1.44906 -9.87204 10.6068 -3.50116 2.1611e-007 50.8864 9.88209 -17.5931 11.0761 1.71921 5.54245 -21.6167 -4.85897 
3.20031 97.5135 -66.4748 6.50354 -8.4937 -6.85744 0 0 0 6.23173 1.09218 3.48861 -16.5707 8.53643 7.18525 5.54089 11.6645 -1.39429 0.294814 -2.613 0.72821 -36.6744 3.72653 -5.19161 -33.1704 18.482 -10.2705 -4.80464 -10.8184 1.61223 -9.94856 0.151485 -1.74035 24.1459 6.22989 16.8038 52.211 14.3943 5.17541 3.16167 -0.291402 8.93825 3.59811 0.137544 4.3769 -9.05911 -7.06086 4.06833 -4.8093 21.5388 -1.6323 3.5634 -8.08328 0.251861 -0.0671857 6.6041 -1.21094 -10.7777 5.28122 -2.3386 -1.71239e-007 58.6205 9.3067 -17.9711 5.59488 0.885385 5.36455 -20.9766 -5.23588 
3.09283 97.6003 -63.9768 6.48638 -8.9399 -7.00372 0 0 0 4.53214 2.18153 2.81127 -15.0318 8.09694 5.9719 6.09407 12.0893 -0.900905 -0.42475 -2.71741 1.61562 -35.6879 3.74976 -5.4573 -30.6769 20.7926 -13.4033 -5.32237 -14.3173 -0.654801 -10.7227 0.148972 -1.58728 24.8469 6.19965 16.28 51.8165 14.806 4.14599 3.28792 -1.22274 9.96583 3.53383 0.124915 4.04767 -9.26295 -4.76653 4.12091 -5.03816 21.4326 -1.39586 5.201 -9.31269 0.423899 0.0451187 5.25802 -1.35377 -10.5959 0.597155 -1.70087 4.55583e-008 62.9496 7.50687 -18.0697 -1.51999 -0.241705 4.91795 -18.6647 -3.24374 
2.95614 97.6571 -61.4789 6.08204 -9.09984 -7.40926 0 0 0 3.62247 2.75679 2.24787 -14.1594 7.87143 5.03301 7.6213 12.9264 -0.941461 -1.886 -3.1301 2.53014 -33.9681 3.88917 -6.19415 -28.9131 20.7695 -16.6834 -5.31857 -14.7352 -1.41831 -10.2352 0.19646 -2.19342 25.7454 6.31423 16.1058 51.4953 14.6254 2.91825 3.54563 -3.18977 11.0164 3.14303 0.103074 3.75568 -9.30319 -3.00028 4.34087 -4.48649 22.0031 -1.47255 5.15574 -11.2016 0.505936 -0.0729386 4.85121 -0.853459 -9.66421 -3.87858 -1.20963 -5.61902e-008 63.6989 4.73648 -19.984 -5.75688 -1.01509 5.13325 -19.538 -3.31373 
2.87726 97.653 -58.9734 5.96993 -8.62764 -7.4551 0 0 0 1.88355 2.95373 1.56242 -12.0831 7.1802 3.72495 8.13361 13.7424 -0.508339 -3.01397 -3.09369 3.46146 -32.9953 3.85626 -6.353 -28.1819 18.8972 -18.7023 -4.93509 -14.2142 -4.09984 -9.47375 0.176582 -2.13077 26.0265 6.20393 15.6101 51.1966 14.7362 1.96271 3.8998 -4.67469 11.414 2.60438 0.095878 4.21595 -9.6295 -1.46477 4.37729 -3.92635 21.3818 -1.54155 6.17376 -12.2826 0.66492 0.140713 3.74387 -1.41284 -8.87643 -8.71159 -0.867926 -9.33798e-008 61.9197 1.54086 -20.1862 -8.13307 -1.45007 5.2624 -20.3629 -4.57152 
2.56531 97.7371 -56.3838 4.90737 -8.58626 -7.37902 0 0 0 0.952319 3.70793 0.838039 -9.67817 6.52899 2.3187 7.30123 14.448 0.331953 -2.89646 -2.92951 3.99715 -32.519 3.76113 -6.22947 -26.7708 18.6511 -21.0541 -4.93327 -14.7412 -6.71944 -8.97429 0.213366 -2.71837 25.4856 6.05984 15.4745 51.4528 13.6034 0.999224 3.11115 -2.59178 11.7059 3.77042 0.134065 4.07137 -8.73081 0.526097 5.16307 -3.15154 21.606 -2.97478 5.74003 -14.1512 0.713064 -0.0314357 3.91176 -0.810075 -7.02645 -11.9274 -0.893006 9.70729e-008 57.0339 -1.26626 -20.7594 -8.95101 -1.64277 4.98659 -19.3015 -5.00178 
2.19374 97.7435 -53.77 4.29841 -8.35982 -6.80189 0 0 0 -0.580734 4.19449 0.0939425 -7.15814 5.87106 1.04992 7.54943 15.1069 0.464265 -3.41533 -2.77968 4.38806 -31.0047 3.7375 -6.56084 -26.9154 16.3246 -23.7129 -4.20016 -12.3252 -7.01543 -9.58235 0.263145 -3.13873 25.605 5.98626 15.1813 51.626 13.7953 -0.48343 3.36787 -4.49081 12.8767 2.94405 0.106669 4.14914 -8.00743 2.66427 5.78553 -2.92318 20.8587 -4.22044 6.33672 -15.2426 0.848749 -0.0515732 3.1563 -0.570958 -5.60245 -14.5444 -0.858046 -7.78082e-009 50.1637 -2.46806 -21.0348 -8.27592 -1.53904 5.11985 -20.1793 -6.21432 
1.86465 97.6161 -51.1907 3.80043 -7.74786 -5.90207 0 0 0 -1.92204 4.26148 -0.602426 -4.97515 5.34759 -0.049829 8.30976 15.5156 0.428194 -3.98316 -2.80914 4.82011 -29.5166 3.78885 -7.11757 -27.1787 15.2578 -25.8315 -4.14925 -13.1791 -8.64694 -9.04902 0.272192 -3.43869 25.8802 5.98801 15.035 51.4111 12.3796 -1.30788 2.91843 -3.28895 12.5101 3.82843 0.141893 4.24359 -7.45032 4.23673 6.13331 -2.43479 20.3383 -5.38103 7.05092 -16.5964 1.02967 -0.0991311 2.45931 -0.228196 -4.62891 -16.7464 -2.01058 -1.63183e-007 41.257 -4.17381 -19.5572 -6.55642 -1.13117 5.1695 -20.0085 -4.70933 
1.35286 97.5195 -48.3958 3.19567 -6.66058 -5.59211 0 0 0 -2.88898 3.35442 -0.913565 -3.10592 5.19969 -0.579548 9.2621 15.7261 0.0387176 -5.03387 -2.34528 5.07714 -28.2616 3.7915 -7.50293 -27.9351 13.384 -28.2803 -3.48659 -11.2119 -8.72631 -8.91779 0.304538 -3.90384 26.1092 5.93005 14.735 51.6897 12.0526 -2.16842 3.38807 -4.76717 12.0268 3.08634 0.133599 4.95603 -6.1613 5.79822 7.11002 -2.88193 19.199 -7.21778 7.63913 -17.7821 1.19676 0.0826842 3.5437 -1.15726 -3.21832 -18.8185 -1.78381 1.04244e-007 31.9344 -4.71939 -17.0305 -2.25443 -0.337583 5.2491 -20.4493 -5.11347 
0.984742 97.1532 -45.5252 3.50354 -6.47483 -5.32809 0 0 0 -4.40358 2.97974 -1.06642 -1.69636 5.56158 -0.899725 9.78095 15.5043 -0.0276684 -5.4153 -1.80667 5.31417 -27.8625 3.79896 -7.64998 -28.0975 12.0445 -30.5963 -3.18998 -10.7105 -9.5286 -8.77363 0.298799 -3.89346 26.8945 6.08455 14.7805 51.4084 11.0645 -4.08682 2.76527 -3.85737 13.4871 3.3074 0.13079 4.39892 -6.25786 8.4373 7.66166 -3.16314 17.6226 -8.35787 8.51746 -18.3956 1.38167 -0.000662946 2.93235 -0.713959 -3.10143 -19.0756 -2.00825 -0.0318734 21.8882 -4.35869 -15.994 -0.192084 -0.0269855 4.96518 -19.2251 -5.07141 
0.725659 96.6578 -42.5496 3.83182 -6.36091 -2.91633 0 0 0 -5.61935 2.83713 -2.10846 -0.45387 5.66105 -2.13255 10.3663 15.6221 -0.275728 -5.67829 -2.10794 5.36701 -27.6061 3.8738 -7.952 -28.6542 10.8006 -32.2905 -2.87113 -9.90955 -10.2726 -8.5751 0.295807 -3.94403 27.7803 6.21331 14.6961 51.0572 10.6413 -5.11819 3.02647 -4.72354 13.2922 3.67714 0.130282 4.22977 -6.02775 10.9095 7.83293 -2.92389 16.875 -11.028 8.8738 -20.072 1.57349 -0.0866051 2.85559 -0.369672 -3.78069 -18.3855 -4.2798 0.248958 12.1353 -4.71905 -17.3144 2.86092 0.435683 5.38076 -20.9691 -4.97098 
0.426895 95.8726 -39.4515 4.64231 -6.30362 -1.14578 0 0 0 -7.20583 2.47779 -2.72091 0.701208 5.80171 -2.89233 10.1967 15.2738 -0.242837 -5.60232 -1.49481 5.30512 -28.3153 3.94842 -7.93851 -27.9737 10.9275 -34.2215 -2.78621 -8.98877 -10.4658 -7.72509 0.308558 -4.56771 27.9554 6.14912 14.4221 51.3337 9.94625 -5.79722 2.89997 -4.00662 12.4828 3.65547 0.130684 4.09354 -6.24324 13.2893 8.15429 -2.87665 16.6774 -13.1924 9.70126 -21.7582 1.8688 -0.161346 2.38126 0.030933 -5.03036 -18.8798 -5.64309 0.90263 7.00432 -6.13444 -18.022 3.35376 0.531992 5.52995 -21.3369 -4.10217 
0.0255509 95.1805 -36.2615 4.64182 -6.13446 0.591071 0 0 0 -8.28626 1.79351 -3.17042 2.33441 6.26278 -3.65082 10.0832 15.3468 -0.403541 -5.74729 -1.54191 5.12734 -29.0222 4.08385 -8.09708 -27.6797 11.3218 -35.723 -2.84561 -8.25203 -9.9264 -8.02301 0.332269 -4.73531 28.0436 6.05413 14.1053 51.5293 9.33418 -6.49282 2.96781 -3.9081 11.6366 3.94433 0.131521 3.91702 -5.13906 15.6604 9.02348 -3.11845 16.5053 -15.9296 10.8335 -23.4516 2.25504 -0.0702575 2.38962 -0.32299 -5.14231 -19.2429 -5.74222 0.466617 4.65663 -7.51452 -15.4255 2.56411 0.347319 5.38564 -20.4513 -2.95263 
